<?xml version="1.0" encoding="UTF-8"?>
<svg id="_レイヤー_2" data-name="レイヤー 2" xmlns="http://www.w3.org/2000/svg" viewBox="0 0 179.9 197.47">
  <defs>
    <style>
      .cls-1 {
        fill: none;
        stroke: #6f7272;
        stroke-linecap: round;
        stroke-miterlimit: 10;
        stroke-width: 10px;
      }

      .cls-2 {
        fill: #6f7272;
        stroke-width: 0px;
      }
    </style>
  </defs>
  <g id="_レイヤー_1-2" data-name="レイヤー 1">
    <g>
      <line class="cls-1" x1="5" y1="138" x2="166" y2="5"/>
      <line class="cls-2" x1="5" y1="138" x2="166" y2="5"/>
    </g>
    <g>
      <line class="cls-1" x1="5" y1="5" x2="170" y2="138"/>
      <line class="cls-2" x1="5" y1="5" x2="170" y2="138"/>
    </g>
    <g>
      <path class="cls-2" d="m16.39,197.47c-10.17,0-12.75-8.56-12.75-14.13,0-10.17,7.18-15.22,13.16-15.22,3.56,0,9.31,2.01,9.31,5.51,0,1.49-1.15,2.87-2.7,2.87-1.38,0-2.47-.98-2.7-2.35-.34-2.01-.69-4.31-4.08-4.31-5.57,0-8.91,6.89-8.91,13.04,0,6.55,3.5,12.41,9.42,12.41,4.83,0,8.16-3.73,9.59-5.34l.98.86c-2.24,3.1-4.83,6.66-11.32,6.66Z"/>
      <path class="cls-2" d="m44.31,196.38v-1.84h.98c2.53,0,3.27-1.67,3.27-4.19v-31.14c0-1.78-.69-2.64-2.13-2.64-.23,0-.92.06-1.67.29l-.29-1.26,7.58-2.18v36.94c0,2.13.63,4.19,3.45,4.19h.8v1.84h-12.01Z"/>
      <path class="cls-2" d="m85.91,197.47c-7.18,0-12.58-6.89-12.58-14.71s5.29-14.65,12.58-14.65,12.58,6.95,12.58,14.65-5.4,14.71-12.58,14.71Zm0-27.63c-5.69,0-8.67,6.21-8.67,12.98s2.99,12.93,8.67,12.93c5.34,0,8.67-5.63,8.67-12.98,0-6.55-2.87-12.93-8.67-12.93Z"/>
      <path class="cls-2" d="m129.06,197.47c-1.09,0-2.3-.17-4.37-.92-.4-.17-1.32-.46-1.84-.46-1.15,0-2.7.86-3.68,1.38l-3.45-9.25,1.55-.69c1.38,2.41,2.13,3.39,3.62,4.71,2.53,2.18,5.23,3.22,7.64,3.22,3.22,0,5.74-2.13,5.74-5.46,0-3.68-3.04-4.54-8.44-5.97-5.69-1.55-9.42-3.22-9.42-7.99,0-3.22,1.95-7.93,8.1-7.93,1.38,0,2.24.17,3.73.69,1.26.4,1.61.4,1.9.4.98,0,1.9-.46,2.76-1.09l3.5,8.33-1.15.52c-2.13-2.7-5.75-7.3-10.46-7.3-2.76,0-5.34,2.18-5.34,5.4,0,3.39,3.16,4.14,8.45,5.46,4.25,1.03,9.77,2.7,9.77,8.67,0,5.29-4.08,8.27-8.62,8.27Z"/>
      <path class="cls-2" d="m168.41,197.47c-10.74,0-12.81-9.65-12.81-14.65,0-7.35,3.91-14.71,12.24-14.71,5.06,0,7.75,2.76,9.25,5.05,2.13,3.28,2.36,6.21,2.53,8.16h-19.88c-.4,13.73,8.79,13.96,9.88,13.96,5,0,7.64-3.5,8.96-5.34l1.32,1.09c-2.13,2.76-4.94,6.43-11.49,6.43Zm-.69-27.63c-6.49,0-7.47,6.95-7.87,9.59h15.34c-.4-7.41-3.96-9.59-7.47-9.59Z"/>
    </g>
  </g>
</svg>