<?xml version="1.0" encoding="UTF-8"?>
<svg id="_レイヤー_2" data-name="レイヤー 2" xmlns="http://www.w3.org/2000/svg" viewBox="0 0 187.93 195.65">
  <defs>
    <style>
      .cls-1 {
        fill: none;
        stroke: #6f7272;
        stroke-linecap: round;
        stroke-miterlimit: 10;
        stroke-width: 10px;
      }

      .cls-2 {
        fill: #6f7272;
        stroke-width: 0px;
      }
    </style>
  </defs>
  <g id="_レイヤー_1-2" data-name="レイヤー 1">
    <line class="cls-1" x1="6.91" y1="70" x2="179.91" y2="70"/>
    <line class="cls-1" x1="6.91" y1="136" x2="179.91" y2="136"/>
    <line class="cls-1" x1="6.91" y1="5" x2="179.91" y2="5"/>
    <g>
      <path class="cls-2" d="m34.47,194.56v-1.84h1.32c2.53,0,3.27-1.67,3.27-4.19v-14.08c0-3.39-1.72-5.51-5.17-5.51-4.6,0-7.58,3.56-8.96,5.29v14.3c0,2.24.69,4.19,3.5,4.19h1.32v1.84h-12.87v-1.84h1.26c2.53,0,3.27-1.67,3.27-4.19v-13.67c0-3.91-1.49-5.92-5.52-5.92-4.25,0-6.66,2.58-8.16,4.19v15.4c0,2.24.75,4.19,3.5,4.19h.92v1.84H0v-1.84h1.03c2.53,0,3.22-1.72,3.22-4.19v-16.66c0-1.15-.75-2.58-2.13-2.58-.12,0-.8,0-1.67.23l-.29-1.21,7.58-2.24v4.88c2.36-2.07,5.23-4.65,9.59-4.65,2.47,0,6.38.92,7.24,5.74,2.41-2.47,5.52-5.74,10.05-5.74,4.83,0,7.87,3.22,7.87,8.39v13.85c0,2.93.92,4.19,2.87,4.19h1.38v1.84h-12.29Z"/>
      <path class="cls-2" d="m79.52,195.65c-10.74,0-12.81-9.65-12.81-14.65,0-7.35,3.91-14.71,12.24-14.71,5.06,0,7.76,2.76,9.25,5.05,2.13,3.28,2.36,6.21,2.53,8.16h-19.88c-.4,13.73,8.79,13.96,9.88,13.96,5,0,7.64-3.5,8.96-5.34l1.32,1.09c-2.13,2.76-4.94,6.43-11.49,6.43Zm-.69-27.63c-6.49,0-7.47,6.95-7.87,9.59h15.34c-.4-7.41-3.96-9.59-7.47-9.59Z"/>
      <path class="cls-2" d="m127.55,194.56v-1.84h1.44c2.58,0,3.27-1.72,3.27-4.19v-13.04c0-2.7-.8-6.55-5.29-6.55-4.02,0-7.35,3.56-8.96,5.34v14.25c0,2.3.69,4.19,3.39,4.19h1.49v1.84h-12.58v-1.84h1.09c2.53,0,3.22-1.72,3.22-4.19v-16.66c0-1.15-.75-2.58-2.13-2.58-.11,0-.8,0-1.67.23l-.29-1.21,7.47-2.24v5.8c2.87-2.87,5.69-5.57,9.94-5.57,4.83,0,7.64,3.27,7.64,8.39v13.85c0,2.58.58,4.19,3.04,4.19h1.49v1.84h-12.58Z"/>
      <path class="cls-2" d="m180.52,194.56v-4.42c-2.18,2.01-5.86,5.52-10.17,5.52-3.5,0-7.76-2.47-7.76-8.33v-16.03c0-1.26-.57-2.36-1.95-2.36-.34,0-.52,0-1.78.17l-.4-1.26,7.47-1.84v20.74c0,4.02,2.24,5.98,5.4,5.98,1.9,0,5-.58,9.19-4.14v-17c0-1.26-.75-2.53-2.36-2.53-.75,0-1.78.23-2.47.4l-.46-1.26,8.73-2.18v23.96c0,2.18,1.61,2.76,2.82,2.76h1.15v1.84h-7.41Z"/>
    </g>
  </g>
</svg>